<svg width="32" height="32" viewBox="0 0 32 32" fill="none" xmlns="http://www.w3.org/2000/svg">
<path d="M10.3926 3.70376C11.9597 1.49168 13.6729 0 15.9999 0C18.3268 0 20.0401 1.49332 21.6072 3.70376C23.1629 5.89943 24.8121 9.14863 26.9241 13.307L27.5641 14.5689C29.3118 18.0117 30.6886 20.7227 31.4106 22.8987C32.1458 25.1107 32.3132 27.0865 31.2121 28.844C30.1126 30.5934 28.2566 31.3236 25.928 31.6649C23.6339 31.9997 20.5586 31.9997 16.6465 31.9997H15.3533C11.4412 31.9997 8.36591 31.9997 6.07178 31.6649C3.74319 31.3236 1.88721 30.5934 0.78773 28.8424C-0.313388 27.0865 -0.146005 25.1107 0.590808 22.8987C1.31285 20.7243 2.68802 18.0117 4.43734 14.5689L5.07733 13.3086C7.18767 9.14863 8.8336 5.89943 10.3926 3.70376ZM17.2307 10.2563C17.2307 9.9299 17.101 9.61685 16.8702 9.38604C16.6394 9.15522 16.3263 9.02556 15.9999 9.02556C15.6735 9.02556 15.3604 9.15522 15.1296 9.38604C14.8988 9.61685 14.7691 9.9299 14.7691 10.2563V19.2819C14.7691 19.6083 14.8988 19.9213 15.1296 20.1521C15.3604 20.383 15.6735 20.5126 15.9999 20.5126C16.3263 20.5126 16.6394 20.383 16.8702 20.1521C17.101 19.9213 17.2307 19.6083 17.2307 19.2819V10.2563ZM17.2307 23.7897C17.2307 23.4633 17.101 23.1503 16.8702 22.9194C16.6394 22.6886 16.3263 22.559 15.9999 22.559C15.6735 22.559 15.3604 22.6886 15.1296 22.9194C14.8988 23.1503 14.7691 23.4633 14.7691 23.7897V24.6102C14.7691 24.9366 14.8988 25.2497 15.1296 25.4805C15.3604 25.7113 15.6735 25.841 15.9999 25.841C16.3263 25.841 16.6394 25.7113 16.8702 25.4805C17.101 25.2497 17.2307 24.9366 17.2307 24.6102V23.7897Z" fill="white"/>
</svg>
