<svg width="17" height="12" viewBox="0 0 17 12" fill="none" xmlns="http://www.w3.org/2000/svg">
<path d="M6.64248 10.366C6.73519 10.4524 6.80955 10.5565 6.86113 10.6723C6.91271 10.788 6.94044 10.913 6.94268 11.0397C6.94491 11.1664 6.9216 11.2923 6.87414 11.4098C6.82668 11.5273 6.75604 11.634 6.66643 11.7236C6.57683 11.8132 6.47009 11.8839 6.35259 11.9313C6.23509 11.9788 6.10923 12.0021 5.98252 11.9999C5.85582 11.9976 5.73086 11.9699 5.61511 11.9183C5.49935 11.8667 5.39518 11.7924 5.30878 11.6997L0.275974 6.66685C0.0992588 6.48991 0 6.25007 0 6C0 5.74993 0.0992588 5.51009 0.275974 5.33315L5.30878 0.300341C5.39518 0.207628 5.49935 0.133265 5.61511 0.0816898C5.73086 0.0301132 5.85582 0.00238132 5.98252 0.000145912C6.10923 -0.0020895 6.23509 0.0212173 6.35259 0.0686779C6.47009 0.116138 6.57683 0.18678 6.66643 0.276388C6.75604 0.365995 6.82668 0.472734 6.87414 0.590236C6.9216 0.707737 6.94491 0.833592 6.94268 0.960297C6.94044 1.087 6.91271 1.21196 6.86113 1.32771C6.80955 1.44347 6.73519 1.54765 6.64248 1.63404L3.22017 5.05635H15.4122C15.6624 5.05635 15.9024 5.15577 16.0794 5.33274C16.2564 5.50971 16.3558 5.74973 16.3558 6C16.3558 6.25027 16.2564 6.49029 16.0794 6.66726C15.9024 6.84423 15.6624 6.94365 15.4122 6.94365H3.22017L6.64248 10.366Z" fill="white"/>
</svg>
